<svg width="32" height="60" viewBox="0 0 32 60" fill="none" xmlns="http://www.w3.org/2000/svg">
  <path fill-rule="evenodd" clip-rule="evenodd" d="M10.597 41.4103C10.597 41.9255 11.0146 42.3431 11.5298 42.3431H13.1814C13.6966 42.3431 14.1142 42.7608 14.1142 43.276V59.0672C14.1142 59.5824 14.5319 60 15.047 60H16.6987C17.2138 60 17.6315 59.5824 17.6315 59.0672V43.276C17.6315 42.7608 18.0491 42.3431 18.5643 42.3431H20.2159C20.7311 42.3431 21.1487 41.9255 21.1487 41.4103V32.6914C21.1487 32.1763 21.5664 31.7586 22.0815 31.7586H30.8329C31.348 31.7586 31.7657 31.341 31.7657 30.8258V29.1742C31.7657 28.659 31.348 28.2414 30.8329 28.2414H22.0815C21.5664 28.2414 21.1487 27.8237 21.1487 27.3086V18.5897C21.1487 18.0745 20.7311 17.6569 20.2159 17.6569H18.5643C18.0491 17.6569 17.6315 17.2392 17.6315 16.724V0.932815C17.6315 0.417636 17.2138 0 16.6987 0H15.047C14.5319 0 14.1142 0.417635 14.1142 0.932815V16.724C14.1142 17.2392 13.6966 17.6569 13.1814 17.6569H11.5298C11.0146 17.6569 10.597 18.0745 10.597 18.5897V27.3086C10.597 27.8237 10.1793 28.2414 9.66415 28.2414H0.932815C0.417635 28.2414 0 28.659 0 29.1742V30.8258C0 31.341 0.417635 31.7586 0.932814 31.7586H9.66415C10.1793 31.7586 10.597 32.1763 10.597 32.6914V41.4103ZM15.0453 17.6394C14.5301 17.6394 14.1125 18.0571 14.1125 18.5723V27.3078C14.1125 27.823 13.6948 28.2406 13.1797 28.2406H11.528C11.0128 28.2406 10.5952 28.6582 10.5952 29.1734V30.8338C10.5952 31.349 11.0128 31.7666 11.528 31.7666H13.1797C13.6948 31.7666 14.1125 32.1843 14.1125 32.6994V41.4262C14.1125 41.9414 14.5301 42.359 15.0453 42.359H16.6969C17.2121 42.359 17.6297 41.9414 17.6297 41.4262V32.6907C17.6297 32.1755 18.0474 31.7578 18.5625 31.7578H20.2142C20.7293 31.7578 21.147 31.3402 21.147 30.825V29.18C21.147 28.6648 20.7293 28.2472 20.2142 28.2472H18.5625C18.0474 28.2472 17.6297 27.8295 17.6297 27.3144V18.5723C17.6297 18.0571 17.2121 17.6394 16.6969 17.6394H15.0453Z" fill="black"/>
</svg>
