<svg width="16" height="16" viewBox="0 0 16 16" fill="none" xmlns="http://www.w3.org/2000/svg">
<path d="M8.00136 16C3.58967 16 0 12.4117 0 8C0 3.58832 3.58967 0 8.00136 0C10 0 11.913 0.740489 13.3899 2.0856L13.659 2.33152L11.0204 4.97011L10.7758 4.76087C10.0014 4.09783 9.0163 3.73234 8.00136 3.73234C5.6481 3.73234 3.73234 5.64674 3.73234 8C3.73234 10.3533 5.6481 12.2677 8.00136 12.2677C9.69837 12.2677 11.0394 11.4008 11.6712 9.92391H7.65353V6.32201L15.4973 6.33288L15.5557 6.6087C15.9647 8.55027 15.6372 11.4062 13.9796 13.4497C12.6073 15.1413 10.5965 16 8.00136 16Z" fill="black"/>
</svg>
